<svg width="20" height="20" viewBox="0 0 24 24" fill="none" xmlns="http://www.w3.org/2000/svg">
  <path d="M22 11V9c0-5-2-7-7-7H9C4 2 2 4 2 9v6c0 5 2 7 7 7h1M2.03 8.5H22m-19.97 7h7.3m-.82 6.49V2.01m7 0v7.75" stroke="currentcolor" stroke-linecap="round" stroke-linejoin="round" stroke-width="1.5"/>
  <path d="M16.72 18.6a1.59 1.59 0 1 0 0-3.18 1.59 1.59 0 0 0 0 3.18" stroke="currentcolor" stroke-linecap="round" stroke-linejoin="round" stroke-miterlimit="10" stroke-width="1.5"/>
  <path d="M11.42 17.47v-.93a1 1 0 0 1 1-1c.96 0 1.35-.68.87-1.51a1 1 0 0 1 .37-1.37l.91-.53a.9.9 0 0 1 1.21.32l.06.1c.48.83 1.26.83 1.74 0l.06-.1a.9.9 0 0 1 1.21-.32l.91.53a1 1 0 0 1 .37 1.37c-.48.83-.09 1.5.87 1.5a1 1 0 0 1 1 1v.94a1 1 0 0 1-1 1c-.96 0-1.35.68-.87 1.5a1 1 0 0 1-.37 1.38l-.91.53a.9.9 0 0 1-1.21-.32l-.06-.1c-.48-.83-1.26-.83-1.74 0l-.06.1a.9.9 0 0 1-1.21.32l-.91-.53a1 1 0 0 1-.37-1.37c.48-.83.09-1.51-.87-1.51a1 1 0 0 1-1-1" stroke="currentcolor" stroke-linecap="round" stroke-linejoin="round" stroke-miterlimit="10" stroke-width="1.5"/>
</svg>
