<svg width="20" height="20" viewBox="0 0 24 24" fill="none" xmlns="http://www.w3.org/2000/svg">
  <path d="M19.9 9.88H4.1c-1.5 0-2.1.31-2.1 1.11v2.02c0 .8.6 1.12 2.1 1.12h15.8c1.5 0 2.1-.33 2.1-1.12v-2.02c0-.8-.6-1.12-2.1-1.12m0 7.88H4.1c-1.5 0-2.1.32-2.1 1.11v2.03c0 .79.6 1.11 2.1 1.11h15.8c1.5 0 2.1-.32 2.1-1.11v-2.03c0-.79-.6-1.11-2.1-1.11M19.9 2H4.1C2.6 2 2 2.32 2 3.12v2.01c0 .8.6 1.12 2.1 1.12h15.8c1.5 0 2.1-.32 2.1-1.12v-2c0-.8-.6-1.12-2.1-1.12" stroke="currentcolor" stroke-linecap="round" stroke-linejoin="round" stroke-width="1.5"/>
</svg>
