<svg width="20" height="20" viewBox="0 0 24 24" fill="none" xmlns="http://www.w3.org/2000/svg">
  <path d="m3.23 21.27 3.54-3.54m0 3.54-3.54-3.54M5 22v-5m2.5 2.5h-5m14.73 1.77 3.54-3.54m0 3.54-3.54-3.54M19 22v-5m2.5 2.5h-5m-6.27 1.77 3.54-3.54m0 3.54-3.54-3.54M12 22v-5m2.5 2.5h-5" stroke="currentcolor" stroke-linecap="round" stroke-linejoin="round"/>
  <path d="M5.4 6.8V5.6C5.4 3.6 6 2 9 2s3.6 1.6 3.6 3.6v1.2M9 11.12a.72.72 0 1 0 0-1.44.72.72 0 0 0 0 1.44" stroke="currentcolor" stroke-linecap="round" stroke-linejoin="round" stroke-width="1.5"/>
  <path d="M13.72 7q-.64-.2-1.72-.2H6c-2.4 0-3 .6-3 3V11c0 2.4.6 3 3 3h6q1.1 0 1.72-.2" stroke="currentcolor" stroke-linecap="round" stroke-linejoin="round" stroke-width="1.5"/>
  <path d="M13.5 9.5 16 12l5.5-5.5" stroke="currentcolor" stroke-linecap="round" stroke-linejoin="round" stroke-width="1.5"/>
</svg>
