<svg width="20" height="20" viewBox="0 0 24 24" fill="none" xmlns="http://www.w3.org/2000/svg">
  <path d="M22 7v10c0 5 0 5-5 5H7c-5 0-5 0-5-5V7c0-5 0-5 5-5h10m5 5-5-5" stroke="currentcolor" stroke-linecap="round" stroke-linejoin="round" stroke-width="1.5"/>
  <path d="M5.5 21.5v-3.7c0-4.3 0-4.3 4.55-4.3h3.9c4.55 0 4.55 0 4.55 4.3v3.7M15 2.25v3.23c0 3.77 0 3.77-2.8 3.77H9.8C7 9.25 7 9.25 7 5.48V2.25" stroke="currentcolor" stroke-linecap="round" stroke-linejoin="round" stroke-width="1.5"/>
</svg>
