<svg xmlns="http://www.w3.org/2000/svg" width="20" height="20" aria-hidden="true" viewBox="-1 2 26 26">
  <defs>
    <linearGradient id="a" x1="98.03%" x2="58.89%" y1=".16%" y2="40.77%">
      <stop offset="18%" stop-color="#0052cc"/>
      <stop offset="100%" stop-color="#2684ff"/>
    </linearGradient>
  </defs>
  <path fill="#2684ff" d="M22.94 4H11.4a5.2 5.2 0 0 0 5.2 5.2h2.13v2.05a5.2 5.2 0 0 0 5.2 5.2V5a1 1 0 0 0-1-1"/>
  <path fill="url(#a)" d="M17.23 9.74H5.71a5.2 5.2 0 0 0 5.2 5.2h2.12V17a5.2 5.2 0 0 0 5.2 5.2V10.74a1 1 0 0 0-1-1"/>
  <path fill="url(#a)" d="M11.53 15.48H0a5.2 5.2 0 0 0 5.2 5.2h2.13v2.06a5.2 5.2 0 0 0 5.2 5.2V16.48a1 1 0 0 0-1-1"/>
</svg>
