<svg xmlns="http://www.w3.org/2000/svg" width="20" height="20" fill="none" viewBox="0 0 24 24">
  <g fill="currentcolor" clip-path="url(#clip0_94_7225)">
    <path stroke="currentcolor" stroke-width=".5" d="M23.47 12.32a.7.7 0 0 0-.97.06l-.01.01v-.5a11 11 0 0 0-3.1-7.7A10.33 10.33 0 0 0 3.35 5.54a.73.73 0 0 0 .16 1c.3.22.74.15.96-.17a9.4 9.4 0 0 1 3.2-2.87 9 9 0 0 1 4.26-1.08c5.06 0 9.18 4.25 9.18 9.47v.5l-.02-.01a.7.7 0 0 0-.97-.06.73.73 0 0 0-.06 1l1.22 1.43a.68.68 0 0 0 1.03 0l1.22-1.43a.73.73 0 0 0-.06-1Zm-2.97 4.52a.7.7 0 0 0-.97.15 9 9 0 0 1-3.2 2.67 9.6 9.6 0 0 1-4.26 1c-5.06 0-9.17-3.95-9.17-8.8v-.46.01c.26.28.7.3.98.06a.64.64 0 0 0 .06-.93L2.72 9.22a.7.7 0 0 0-.51-.23.7.7 0 0 0-.52.23L.47 10.54a.64.64 0 0 0 .06.93q.2.17.46.17a.7.7 0 0 0 .51-.23l.02-.01v.46c0 2.7 1.1 5.25 3.09 7.16a11 11 0 0 0 12.36 1.81 10.5 10.5 0 0 0 3.68-3.07.64.64 0 0 0-.16-.92Z"/>
    <path d="M5.2 13.14a.6.6 0 0 0 .07.48l1.38 2.23q.14.22.41.3.28.06.53-.07l1.01-.54q.61.44 1.33.71v1.1c0 .35.31.63.7.63h2.75c.38 0 .69-.28.69-.64v-1.09q.72-.27 1.33-.71l1.01.54q.25.13.53.07a.7.7 0 0 0 .42-.3l1.38-2.23a.6.6 0 0 0 .06-.48.7.7 0 0 0-.32-.4l-1.01-.54a5 5 0 0 0 0-1.42l1.01-.55a.7.7 0 0 0 .32-.39.6.6 0 0 0-.06-.49l-1.38-2.22a.7.7 0 0 0-.95-.23l-1.02.55q-.6-.45-1.32-.72v-1.1c0-.35-.3-.63-.69-.63h-2.76c-.38 0-.69.28-.69.64v1.1q-.71.26-1.32.7L7.59 6.9a.7.7 0 0 0-.94.23L5.27 9.35a.6.6 0 0 0-.07.5q.07.25.32.38l1.02.55a5 5 0 0 0 0 1.42l-1.02.55a.7.7 0 0 0-.32.39M12 9.57c1.14 0 2.07.86 2.07 1.92 0 1.07-.93 1.93-2.07 1.93s-2.07-.86-2.07-1.93.93-1.92 2.07-1.92"/>
  </g>
</svg>
