<svg xmlns="http://www.w3.org/2000/svg" width="20" height="20" fill="none" viewBox="0 0 24 24">
  <g clip-path="url(#a)">
    <path fill="currentcolor" d="m1.32 9.4 1.88-.25q.23-.7.57-1.37L2.6 6.28c-.48-.6-.42-1.45.12-1.97L4.3 2.73a1.5 1.5 0 0 1 1.99-.12l1.49 1.16q.66-.34 1.37-.57l.24-1.88A1.5 1.5 0 0 1 10.88 0h2.24c.76 0 1.4.57 1.49 1.32l.24 1.88q.7.23 1.37.57l1.5-1.16c.6-.47 1.45-.42 1.97.12l1.58 1.57c.54.53.6 1.38.13 1.99l-1.17 1.5q.35.65.57 1.36l1.88.24A1.5 1.5 0 0 1 24 10.88v2.24c0 .76-.57 1.4-1.32 1.49l-1.88.24q-.22.7-.57 1.37l1.16 1.5c.47.6.42 1.45-.12 1.97l-1.57 1.58a1.5 1.5 0 0 1-1.99.12l-1.5-1.16q-.65.35-1.37.57l-.23 1.88A1.5 1.5 0 0 1 13.12 24h-2.24a1.5 1.5 0 0 1-1.49-1.32l-.24-1.88a10 10 0 0 1-1.37-.57l-1.5 1.16c-.6.47-1.45.42-1.97-.12L2.73 19.7a1.5 1.5 0 0 1-.12-1.99l1.16-1.5q-.34-.65-.57-1.37l-1.88-.23A1.5 1.5 0 0 1 0 13.12v-2.24c0-.76.57-1.4 1.32-1.49M12 17a5 5 0 1 0-.01-10.01A5 5 0 0 0 12 17"/>
  </g>
  <defs>
    <clipPath id="a">
      <path fill="#fff" d="M24 0H0v24h24z"/>
    </clipPath>
  </defs>
</svg>
