<svg width="20" height="20" viewBox="0 0 24 24" fill="none" xmlns="http://www.w3.org/2000/svg">
<path d="M22.8 12C23.4627 12 24.0062 12.5386 23.9401 13.1981C23.6968 15.6225 22.7196 17.9261 21.1249 19.7934C19.2692 21.966 16.6993 23.4053 13.8772 23.8523C11.0552 24.2992 8.16621 23.7246 5.73002 22.2317C3.29382 20.7388 1.47026 18.4256 0.587322 15.7082C-0.295613 12.9908 -0.179972 10.0475 0.913445 7.4078C2.00686 4.76806 4.0063 2.60508 6.55211 1.30792C9.09793 0.0107632 12.0231 -0.335448 14.8013 0.331561C17.1891 0.904801 19.3337 2.19408 20.9555 4.01254C21.3966 4.50715 21.2736 5.26237 20.7374 5.65192C20.2012 6.04147 19.4558 5.91636 19.0024 5.43294C17.7257 4.0715 16.0728 3.10501 14.2411 2.66525C12.0184 2.13164 9.67834 2.40861 7.64169 3.44634C5.60504 4.48406 4.00549 6.21444 3.13076 8.32624C2.25602 10.438 2.16351 12.7926 2.86986 14.9666C3.57621 17.1405 5.03506 18.991 6.98401 20.1853C8.93297 21.3797 11.2441 21.8394 13.5018 21.4818C15.7594 21.1242 17.8154 19.9728 19.2999 18.2347C20.5233 16.8023 21.2924 15.0488 21.5251 13.1969C21.6077 12.5394 22.1373 12 22.8 12Z" fill="currentColor"/>
<rect x="10.5605" y="7.67993" width="1.92" height="6.72" rx="0.96" fill="currentColor"/>
<rect x="18.2402" y="12.48" width="1.92" height="7.68" rx="0.96" transform="rotate(90 18.2402 12.48)" fill="currentColor"/>
</svg>
