<svg width="20" height="20" viewBox="0 0 24 24" fill="none" xmlns="http://www.w3.org/2000/svg">
  <path d="M8.4 3H8a4 4 0 0 0-4 4v11a4 4 0 0 0 4 4h8a4 4 0 0 0 4-4V7a4 4 0 0 0-4-4" stroke="currentcolor" stroke-width="2"/>
  <rect width="8" height="4" rx="2" stroke="currentcolor" stroke-width="2" x="8" y="1"/>
  <path d="M11.06 7.8h2.36l-.4 7.49h-1.58zm1.18 11.31q-.55 0-.93-.35a1.2 1.2 0 0 1-.37-.9q0-.52.37-.88.38-.35.93-.35.54 0 .9.35.36.36.36.88 0 .53-.36.9-.36.35-.9.35" fill="currentcolor"/>
</svg>
