<svg width="20" height="20" viewBox="0 0 31 34" fill="none" xmlns="http://www.w3.org/2000/svg">
  <path d="M26.68 21.68a.6.6 0 0 1-.58-.58v-5.86a10.6 10.6 0 0 0-7.2-10.03A3.5 3.5 0 0 0 15.5.75a3.53 3.53 0 0 0-3.4 4.46 10.6 10.6 0 0 0-7.2 10.03v5.86c0 .32-.26.58-.58.58a3.57 3.57 0 0 0 0 7.14h7.44q-.05.3-.05.64a3.8 3.8 0 1 0 7.53-.64h7.44a3.57 3.57 0 0 0 0-7.14ZM14.36 4.27a1.14 1.14 0 1 1 2.19.44 11 11 0 0 0-2.1 0 1 1 0 0 1-.09-.44Zm2.55 25.2a1.4 1.4 0 1 1-2.66-.65h2.5q.16.3.16.64Zm9.77-3.04H4.32a1.19 1.19 0 0 1 0-2.36A2.97 2.97 0 0 0 7.3 21.1v-5.86a8.21 8.21 0 0 1 16.42 0v5.86a2.97 2.97 0 0 0 2.97 2.97 1.19 1.19 0 0 1 0 2.36Z" fill="#999" stroke="#999" stroke-width=".5"/>
</svg>
