<svg xmlns="http://www.w3.org/2000/svg" width="20" height="20" fill="none" viewBox="0 0 24 24">
  <path stroke="currentcolor" stroke-width="2" d="M11.43 1.43c.2-.57.93-.57 1.14 0l2 5.4a2.6 2.6 0 0 0 2.3 1.72l5.54.32q.41.03.55.47a.7.7 0 0 1-.2.77l-4.3 3.66a2.7 2.7 0 0 0-.87 2.75l1.42 5.6a.7.7 0 0 1-.25.75.54.54 0 0 1-.67.02l-4.65-3.13c-.88-.59-2-.59-2.88 0l-4.65 3.13a.54.54 0 0 1-.67-.02.7.7 0 0 1-.25-.76l1.42-5.59c.25-1-.08-2.08-.87-2.75l-4.3-3.66a.7.7 0 0 1-.2-.77c.08-.29.3-.45.55-.47l5.53-.32a2.6 2.6 0 0 0 2.3-1.73zM16 13H8m4 4V9"/>
</svg>
