<svg width="20" height="20" viewBox="0 0 32 32" fill="none" xmlns="http://www.w3.org/2000/svg">
<path fill-rule="evenodd" clip-rule="evenodd" d="M12.9104 17.3635L3.3527 5.55517C2.52637 4.53425 3.24378 3 4.54749 3L27.4522 3C28.7559 3 29.4733 4.53425 28.647 5.55517L19.0893 17.3635V23.5263L12.9104 29V17.3635ZM22.0893 18.4255L30.9789 7.44259C33.3473 4.51649 31.3516 3.09944e-06 27.4522 2.6226e-06L4.54749 0C0.64812 0 -1.34756 4.51649 1.02083 7.44259L9.91044 18.4255V29C9.91044 30.1805 10.6027 31.2512 11.6792 31.7357C12.7556 32.2202 14.0161 32.0284 14.8997 31.2456L21.0786 25.7719C21.7213 25.2025 22.0893 24.385 22.0893 23.5263V18.4255Z" fill="currentColor"/>
</svg>
