<svg width="20" height="20" viewBox="0 0 16 16" fill="none" xmlns="http://www.w3.org/2000/svg">
  <g clip-path="url(#clip0_1326_14273)" fill="currentcolor">
    <path d="M10 8.67c-.37 0-.67.3-.67.66V12c0 .37-.3.67-.66.67h-2v-10c0-.57-.37-1.08-.91-1.27l-.2-.07h3.1c.37 0 .67.3.67.67v2a.67.67 0 1 0 1.34 0V2a2 2 0 0 0-2-2H1.5l-.07.02-.1-.02C.6 0 0 .6 0 1.33v12c0 .57.36 1.08.9 1.27l4.02 1.34q.2.06.41.06c.74 0 1.34-.6 1.34-1.33V14h2a2 2 0 0 0 2-2V9.33c0-.36-.3-.66-.67-.66"/>
    <path d="m15.8 6.2-2.66-2.67A.67.67 0 0 0 12 4v2H9.33a.67.67 0 0 0 0 1.33H12v2a.67.67 0 0 0 1.14.47l2.66-2.66a.67.67 0 0 0 0-.94"/>
  </g>
  <defs>
    <clipPath id="clip0_1326_14273">
      <path d="M0 0h16v16H0z" fill="#fff"/>
    </clipPath>
  </defs>
</svg>
