<svg xmlns="http://www.w3.org/2000/svg" width="20" height="20" fill="none" viewBox="0 0 24 24">
  <path stroke="currentcolor" stroke-linecap="round" stroke-linejoin="round" stroke-width="1.5" d="m14.53 9.47-5.06 5.06a3.58 3.58 0 1 1 5.06-5.06"/>
  <path stroke="currentcolor" stroke-linecap="round" stroke-linejoin="round" stroke-width="1.5" d="M17.82 5.77A9.6 9.6 0 0 0 12 3.73c-3.53 0-6.82 2.08-9.11 5.68a5.3 5.3 0 0 0 0 5.19 14 14 0 0 0 2.71 3.17m2.82 1.76q1.72.73 3.58.74c3.53 0 6.82-2.08 9.11-5.68.9-1.41.9-3.78 0-5.19q-.5-.78-1.06-1.47"/>
  <path stroke="currentcolor" stroke-linecap="round" stroke-linejoin="round" stroke-width="1.5" d="M15.51 12.7a3.6 3.6 0 0 1-2.82 2.82m-3.22-.99L2 22M22 2l-7.47 7.47"/>
</svg>
