<svg width="20" height="20" viewBox="0 0 24 24" fill="none" xmlns="http://www.w3.org/2000/svg">
  <path d="M19.79 14.93a7.6 7.6 0 0 1-7.6 1.87l-4.71 4.7c-.34.35-1.01.56-1.49.49l-2.18-.3a1.9 1.9 0 0 1-1.5-1.5l-.3-2.18c-.07-.48.16-1.15.49-1.49l4.7-4.7a7.57 7.57 0 1 1 12.59 3.11m-12.9 2.56 2.3 2.3" stroke="currentcolor" stroke-linecap="round" stroke-linejoin="round" stroke-miterlimit="10" stroke-width="1.5"/>
  <path d="M14.5 11a1.5 1.5 0 1 0 0-3 1.5 1.5 0 0 0 0 3" stroke="currentcolor" stroke-linecap="round" stroke-linejoin="round" stroke-width="1.5"/>
</svg>
