<svg width="20" height="20" viewBox="0 0 24 24" fill="none" xmlns="http://www.w3.org/2000/svg">
<path d="M19.9 9.875H4.1C2.6 9.875 2 10.195 2 10.99V13.01C2 13.805 2.6 14.125 4.1 14.125H19.9C21.4 14.125 22 13.805 22 13.01V10.99C22 10.195 21.4 9.875 19.9 9.875Z" stroke="currentColor" stroke-width="1.5" stroke-linecap="round" stroke-linejoin="round"/>
<path d="M19.9 17.75H4.1C2.6 17.75 2 18.07 2 18.865V20.885C2 21.68 2.6 22 4.1 22H19.9C21.4 22 22 21.68 22 20.885V18.865C22 18.07 21.4 17.75 19.9 17.75Z" stroke="currentColor" stroke-width="1.5" stroke-linecap="round" stroke-linejoin="round"/>
<path d="M19.9 2H4.1C2.6 2 2 2.32 2 3.115V5.135C2 5.93 2.6 6.25 4.1 6.25H19.9C21.4 6.25 22 5.93 22 5.135V3.115C22 2.32 21.4 2 19.9 2Z" stroke="currentColor" stroke-width="1.5" stroke-linecap="round" stroke-linejoin="round"/>
</svg>
