<svg width="20" height="20" viewBox="0 0 40 40" fill="none" xmlns="http://www.w3.org/2000/svg">
<path d="M14.8335 12.5999C15.3502 6.5999 18.4335 4.1499 25.1835 4.1499H25.4002C32.8502 4.1499 35.8335 7.13324 35.8335 14.5832V25.4499C35.8335 32.8999 32.8502 35.8832 25.4002 35.8832H25.1835C18.4835 35.8832 15.4002 33.4666 14.8502 27.5666" stroke="currentColor" stroke-width="1.5" stroke-linecap="round" stroke-linejoin="round"/>
<path d="M3.3335 20H24.8002" stroke="currentColor" stroke-width="1.5" stroke-linecap="round" stroke-linejoin="round"/>
<path d="M21.0835 14.4167L26.6668 20.0001L21.0835 25.5834" stroke="currentColor" stroke-width="1.5" stroke-linecap="round" stroke-linejoin="round"/>
<path d="M14.8335 12.5999C15.3502 6.5999 18.4335 4.1499 25.1835 4.1499H25.4002C32.8502 4.1499 35.8335 7.13324 35.8335 14.5832V25.4499C35.8335 32.8999 32.8502 35.8832 25.4002 35.8832H25.1835C18.4835 35.8832 15.4002 33.4666 14.8502 27.5666" stroke="currentColor" stroke-width="1.5" stroke-linecap="round" stroke-linejoin="round"/>
<path d="M3.3335 20H24.8002" stroke="currentColor" stroke-width="1.5" stroke-linecap="round" stroke-linejoin="round"/>
<path d="M21.0835 14.4167L26.6668 20.0001L21.0835 25.5834" stroke="currentColor" stroke-width="1.5" stroke-linecap="round" stroke-linejoin="round"/>
</svg>
