<svg width="20" height="20" viewBox="0 0 40 40" fill="none" xmlns="http://www.w3.org/2000/svg">
<path d="M8.99984 3.49976H30.9998C32.8332 3.49976 34.3332 4.99976 34.3332 6.83309V10.4998C34.3332 11.8331 33.4998 13.4998 32.6665 14.3331L25.4998 20.6664C24.4998 21.4998 23.8332 23.1664 23.8332 24.4998V31.6664C23.8332 32.6664 23.1665 33.9998 22.3332 34.4998L19.9998 35.9998C17.8332 37.3331 14.8332 35.8331 14.8332 33.1664V24.3331C14.8332 23.1664 14.1665 21.6664 13.4998 20.8331L7.1665 14.1664C6.33317 13.3331 5.6665 11.8331 5.6665 10.8331V6.99976C5.6665 4.99976 7.1665 3.49976 8.99984 3.49976Z" stroke="currentColor" stroke-width="1.5" stroke-miterlimit="10" stroke-linecap="round" stroke-linejoin="round"/>
<path d="M18.2167 3.49976L10 16.6664" stroke="currentColor" stroke-width="1.5" stroke-miterlimit="10" stroke-linecap="round" stroke-linejoin="round"/>
</svg>
