<svg width="20" height="20" viewBox="0 0 24 24" fill="none" xmlns="http://www.w3.org/2000/svg">
  <path d="M10 6h4c2 0 2-1 2-2 0-2-1-2-2-2h-4C9 2 8 2 8 4s1 2 2 2" stroke="currentcolor" stroke-linecap="round" stroke-linejoin="round" stroke-miterlimit="10" stroke-width="1.5"/>
  <path d="M8 4.02C4.67 4.2 3 5.44 3 10v6c0 4 1 6 6 6h2.5M16 4.02c3.33.18 5 1.41 5 5.98v2.5" stroke="currentcolor" stroke-linecap="round" stroke-linejoin="round" stroke-miterlimit="10" stroke-width="1.5"/>
  <path d="M13.75 17.38v-.94c0-.94.75-1.69 1.69-1.69h.94m2.25 0h.93c.94 0 1.69.75 1.69 1.69v.93m0 2.63v.56c0 .94-.75 1.69-1.69 1.69H19m-2.62 0h-.94c-.94 0-1.69-.75-1.69-1.69v-.93" stroke="currentcolor" stroke-linecap="round" stroke-linejoin="round" stroke-width="1.5"/>
</svg>
