<svg width="20" height="20" viewBox="0 0 30 30" fill="none" xmlns="http://www.w3.org/2000/svg">
<path d="M17.1626 4.38749L19.3626 8.78749C19.6626 9.39999 20.4626 9.98749 21.1376 10.1L25.1251 10.7625C27.6751 11.1875 28.2751 13.0375 26.4376 14.8625L23.3376 17.9625C22.8126 18.4875 22.5251 19.5 22.6876 20.225L23.5751 24.0625C24.2751 27.1 22.6626 28.275 19.9751 26.6875L16.2376 24.475C15.5626 24.075 14.4501 24.075 13.7626 24.475L10.0251 26.6875C7.35013 28.275 5.72513 27.0875 6.42513 24.0625L7.31263 20.225C7.47513 19.5 7.18763 18.4875 6.66263 17.9625L3.56263 14.8625C1.73763 13.0375 2.32513 11.1875 4.87513 10.7625L8.86263 10.1C9.52513 9.98749 10.3251 9.39999 10.6251 8.78749L12.8251 4.38749C14.0251 1.99999 15.9751 1.99999 17.1626 4.38749Z" stroke="currentColor" stroke-width="1.5" stroke-linecap="round" stroke-linejoin="round"/>
</svg>
