<svg width="20" height="20" viewBox="0 0 40 40" fill="none" xmlns="http://www.w3.org/2000/svg">
<path d="M20 25C22.7614 25 25 22.7614 25 20C25 17.2386 22.7614 15 20 15C17.2386 15 15 17.2386 15 20C15 22.7614 17.2386 25 20 25Z" stroke="currentColor" stroke-width="1.5" stroke-miterlimit="10" stroke-linecap="round" stroke-linejoin="round"/>
<path d="M3.3335 21.4667V18.5334C3.3335 16.8001 4.75016 15.3667 6.50016 15.3667C9.51683 15.3667 10.7502 13.2334 9.2335 10.6167C8.36683 9.11672 8.8835 7.16672 10.4002 6.30006L13.2835 4.65006C14.6002 3.86672 16.3002 4.33339 17.0835 5.65006L17.2668 5.96672C18.7668 8.58339 21.2335 8.58339 22.7502 5.96672L22.9335 5.65006C23.7168 4.33339 25.4168 3.86672 26.7335 4.65006L29.6168 6.30006C31.1335 7.16672 31.6502 9.11672 30.7835 10.6167C29.2668 13.2334 30.5002 15.3667 33.5168 15.3667C35.2502 15.3667 36.6835 16.7834 36.6835 18.5334V21.4667C36.6835 23.2001 35.2668 24.6334 33.5168 24.6334C30.5002 24.6334 29.2668 26.7667 30.7835 29.3834C31.6502 30.9001 31.1335 32.8334 29.6168 33.7001L26.7335 35.3501C25.4168 36.1334 23.7168 35.6667 22.9335 34.3501L22.7502 34.0334C21.2502 31.4167 18.7835 31.4167 17.2668 34.0334L17.0835 34.3501C16.3002 35.6667 14.6002 36.1334 13.2835 35.3501L10.4002 33.7001C8.8835 32.8334 8.36683 30.8834 9.2335 29.3834C10.7502 26.7667 9.51683 24.6334 6.50016 24.6334C4.75016 24.6334 3.3335 23.2001 3.3335 21.4667Z" stroke="currentColor" stroke-width="1.5" stroke-miterlimit="10" stroke-linecap="round" stroke-linejoin="round"/>
</svg>
