<svg xmlns="http://www.w3.org/2000/svg" width="20" height="20" fill="none" viewBox="0 0 24 24">
  <path stroke="currentcolor" stroke-linecap="round" stroke-linejoin="round" stroke-miterlimit="10" stroke-width="1.5" d="M16.04 3.02 8.16 10.9c-.3.3-.6.89-.66 1.32l-.43 3.01c-.16 1.09.61 1.85 1.7 1.7l3.01-.43a3 3 0 0 0 1.32-.66l7.88-7.88c1.36-1.36 2-2.94 0-4.94s-3.58-1.36-4.94 0"/>
  <path stroke="currentcolor" stroke-linecap="round" stroke-linejoin="round" stroke-miterlimit="10" stroke-width="1.5" d="M14.91 4.15a7.1 7.1 0 0 0 4.94 4.94"/>
  <path stroke="currentcolor" stroke-linecap="round" stroke-width="1.5" d="M12 2C6.44 2 2 6.44 2 12s4.44 10 10 10 10-4.44 10-10"/>
</svg>
