<svg width="20" height="20" viewBox="0 0 24 24" fill="none" xmlns="http://www.w3.org/2000/svg">
  <path d="M16.5 18.25h-1.51a.76.76 0 0 1-.75-.75c0-.41.34-.75.75-.75h1.51a4.75 4.75 0 0 0 0-9.5H15a.75.75 0 1 1 0-1.5h1.5a6.25 6.25 0 0 1 0 12.5m-7.5 0H7.5a6.25 6.25 0 0 1 0-12.5H9c.41 0 .75.34.75.75s-.34.75-.75.75H7.5a4.75 4.75 0 0 0 0 9.5H9c.41 0 .75.34.75.75s-.34.75-.75.75" fill="currentcolor"/>
  <path d="M16 12.75H8a.76.76 0 0 1-.75-.75c0-.41.34-.75.75-.75h8c.41 0 .75.34.75.75s-.34.75-.75.75" fill="currentcolor"/>
</svg>
