<svg xmlns="http://www.w3.org/2000/svg" width="20" height="20" fill="none" viewBox="0 0 24 24">
  <path stroke="currentcolor" stroke-linecap="round" stroke-linejoin="round" stroke-miterlimit="10" stroke-width="1.5" d="M12 15a3 3 0 1 0 0-6 3 3 0 0 0 0 6"/>
  <path stroke="currentcolor" stroke-linecap="round" stroke-linejoin="round" stroke-miterlimit="10" stroke-width="1.5" d="M2 12.88v-1.76c0-1.04.85-1.9 1.9-1.9 1.81 0 2.55-1.28 1.64-2.85a1.9 1.9 0 0 1 .7-2.59l1.73-.99a1.67 1.67 0 0 1 2.28.6l.11.19c.9 1.57 2.38 1.57 3.29 0l.11-.19a1.67 1.67 0 0 1 2.28-.6l1.73.99a1.9 1.9 0 0 1 .7 2.59c-.91 1.57-.17 2.85 1.64 2.85 1.04 0 1.9.85 1.9 1.9v1.76a1.9 1.9 0 0 1-1.9 1.9c-1.81 0-2.55 1.28-1.64 2.85a1.9 1.9 0 0 1-.7 2.59l-1.73.99c-.79.47-1.81.19-2.28-.6l-.11-.19c-.9-1.57-2.38-1.57-3.29 0l-.11.19a1.67 1.67 0 0 1-2.28.6l-1.73-.99a1.9 1.9 0 0 1-.7-2.59c.91-1.57.17-2.85-1.64-2.85a1.9 1.9 0 0 1-1.9-1.9"/>
</svg>
