<svg xmlns="http://www.w3.org/2000/svg" width="20" height="20" fill="none" viewBox="0 0 24 24">
  <path stroke="currentcolor" stroke-linecap="round" stroke-linejoin="round" stroke-miterlimit="10" stroke-width="1.5" d="M21 7v10c0 3-1.5 5-5 5H8c-3.5 0-5-2-5-5V7c0-3 1.5-5 5-5h8c3.5 0 5 2 5 5"/>
  <path stroke="currentcolor" stroke-linecap="round" stroke-linejoin="round" stroke-miterlimit="10" stroke-width="1.5" d="M15.5 2v7.86a.5.5 0 0 1-.84.37l-2.32-2.14a.5.5 0 0 0-.68 0l-2.32 2.14a.5.5 0 0 1-.84-.37V2zm-2.25 12h4.25M9 18h8.5"/>
</svg>
