<svg xmlns="http://www.w3.org/2000/svg" width="20" height="20" fill="none" viewBox="0 0 24 24">
  <path stroke="currentcolor" stroke-linecap="round" stroke-linejoin="round" stroke-width="1.5" d="M20 8.25V18c0 3-1.79 4-4 4H8c-2.21 0-4-1-4-4V8.25c0-3.25 1.79-4 4-4a2.24 2.24 0 0 0 2.25 2.25h3.5A2.25 2.25 0 0 0 16 4.25c2.21 0 4 .75 4 4"/>
  <path stroke="currentcolor" stroke-linecap="round" stroke-linejoin="round" stroke-width="1.5" d="M16 4.25a2.25 2.25 0 0 1-2.25 2.25h-3.5A2.24 2.24 0 0 1 8 4.25 2.25 2.25 0 0 1 10.25 2h3.5A2.24 2.24 0 0 1 16 4.25M8 13h4m-4 4h8"/>
</svg>
