<svg width="20" height="20" viewBox="0 0 40 40" fill="none" xmlns="http://www.w3.org/2000/svg">
<path d="M18.3334 3.33325H15C6.66671 3.33325 3.33337 6.66659 3.33337 14.9999V24.9999C3.33337 33.3333 6.66671 36.6666 15 36.6666H25C33.3334 36.6666 36.6667 33.3333 36.6667 24.9999V21.6666" stroke="currentColor" stroke-width="1.5" stroke-linecap="round" stroke-linejoin="round"/>
<path d="M26.7334 5.03327L13.6 18.1666C13.1 18.6666 12.6 19.6499 12.5 20.3666L11.7834 25.3833C11.5167 27.1999 12.8 28.4666 14.6167 28.2166L19.6334 27.4999C20.3334 27.3999 21.3167 26.8999 21.8334 26.3999L34.9667 13.2666C37.2334 10.9999 38.3 8.3666 34.9667 5.03327C31.6334 1.69993 29 2.7666 26.7334 5.03327Z" stroke="currentColor" stroke-width="1.5" stroke-miterlimit="10" stroke-linecap="round" stroke-linejoin="round"/>
<path d="M24.85 6.91675C25.9666 10.9001 29.0833 14.0167 33.0833 15.1501" stroke="currentColor" stroke-width="1.5" stroke-miterlimit="10" stroke-linecap="round" stroke-linejoin="round"/>
</svg>
