<svg xmlns="http://www.w3.org/2000/svg" width="20" height="20" fill="none" viewBox="0 0 40 40">
  <path stroke="currentcolor" stroke-linecap="round" stroke-linejoin="round" stroke-width="1.5" d="M14.83 12.6c.52-6 3.6-8.45 10.35-8.45h.22c7.45 0 10.43 2.98 10.43 10.43v10.87c0 7.45-2.98 10.43-10.43 10.43h-.22c-6.7 0-9.78-2.41-10.33-8.31M3.33 20H24.8"/>
  <path stroke="currentcolor" stroke-linecap="round" stroke-linejoin="round" stroke-width="1.5" d="M21.08 14.42 26.67 20l-5.59 5.58"/>
  <path stroke="currentcolor" stroke-linecap="round" stroke-linejoin="round" stroke-width="1.5" d="M14.83 12.6c.52-6 3.6-8.45 10.35-8.45h.22c7.45 0 10.43 2.98 10.43 10.43v10.87c0 7.45-2.98 10.43-10.43 10.43h-.22c-6.7 0-9.78-2.41-10.33-8.31M3.33 20H24.8"/>
  <path stroke="currentcolor" stroke-linecap="round" stroke-linejoin="round" stroke-width="1.5" d="M21.08 14.42 26.67 20l-5.59 5.58"/>
</svg>
