<svg width="20" height="20" viewBox="0 0 75 75" fill="none" xmlns="http://www.w3.org/2000/svg">
<path d="M37.875 39.9375C37.6562 39.9063 37.375 39.9063 37.125 39.9375C31.625 39.75 27.25 35.25 27.25 29.7188C27.25 24.0625 31.8125 19.4688 37.5 19.4688C43.1562 19.4688 47.75 24.0625 47.75 29.7188C47.7187 35.25 43.375 39.75 37.875 39.9375Z" stroke="currentColor" stroke-width="1.5" stroke-linecap="round" stroke-linejoin="round"/>
<path d="M58.5625 60.5625C53 65.6562 45.625 68.75 37.5 68.75C29.375 68.75 22 65.6562 16.4375 60.5625C16.75 57.625 18.625 54.75 21.9687 52.5C30.5312 46.8125 44.5312 46.8125 53.0312 52.5C56.375 54.75 58.25 57.625 58.5625 60.5625Z" stroke="currentColor" stroke-width="1.5" stroke-linecap="round" stroke-linejoin="round"/>
<path d="M37.5 68.75C54.7589 68.75 68.75 54.7589 68.75 37.5C68.75 20.2411 54.7589 6.25 37.5 6.25C20.2411 6.25 6.25 20.2411 6.25 37.5C6.25 54.7589 20.2411 68.75 37.5 68.75Z" stroke="currentColor" stroke-width="1.5" stroke-linecap="round" stroke-linejoin="round"/>
</svg>
